<svg height="120" viewBox="0 0 300 120" width="300" xmlns="http://www.w3.org/2000/svg"><g fill="#86c440" fill-rule="evenodd"><g transform="translate(0 79.143179)"><path d="m293.590755.67440812c-7.948139 13.11307778-15.819842 26.29312288-23.809583 39.36121758l-15.828635-.0277339c-.095716-.8188275.517136-1.7110485.922999-2.3939121 7.200338-11.9898534 15.243517-24.8479143 22.517587-36.96223224z"/><path d="m270.582074.64024803c-1.924126 3.04904171-3.567531 6.37880496-5.723675 9.19616685l-46.016009-.07440812c-5.066178-.00574971-10.740135-.53607666-13.993799 1.27034954-2.799775 1.5531003-4.221984 5.5664036-6.084893 8.6421646-.762345 1.2537767-1.86832 3.1105975-2.771364 4.5953776-.66088 1.0894025-2.681736 3.4322436-2.399662 4.7864713.45761 2.1788049 6.853664 1.6657272 9.387937 1.6711387l21.901691.0334836c3.183314 0 8.455806.830327 10.860541.0172492 2.026268-.6835401 2.356708-4.5040587 3.872266-5.8873732l-21.534724-.0344983c-.459977-.722097.496505-1.5121759.92469-2.2068771 1.344081-2.1838783 2.822774-4.8595265 4.245322-6.9882751l38.102367.0629087c-4.696167 8.2525366-9.660541 16.2341601-14.58027 24.2726043l-34.421534-.0510711c-10.680609-.0165727-24.928072 1.5693349-31.842277-2.4443066-4.302142-2.4950395-4.913642-6.4410372-2.009019-11.226832 1.229425-2.0215333 2.172379-3.714318 3.140699-5.3404735 2.037768-3.4149944 4.041713-7.5074409 6.46133-10.2953777 3.323675-3.83337094 8.957723-6.33416012 14.918489-8.07260431 6.169448-1.80642616 13.121534-2.00901917 20.990192-1.99853439z"/><path d="m187.640361.64024803c-1.92717 3.04904171-3.564487 6.37880496-5.721308 9.19616685l-46.016347-.07440812c-5.066178-.00574971-10.739121-.53607666-13.993461 1.27034954-2.802481 1.5531003-4.221985 5.5664036-6.090643 8.6421646-.761669 1.2537767-1.86257 3.1105975-2.765953 4.5953776-.660203 1.0894025-2.681059 3.4322436-2.401691 4.7864713.459978 2.1788049 6.849944 1.6657272 9.384217 1.6711387l21.907779.0334836c3.183653 0 8.455806.830327 10.857497.0172492 2.02965-.6835401 2.359752-4.5040587 3.875986-5.8873732l-21.5354-.0344983c-.463021-.722097.491094-1.5121759.920293-2.2068771 1.343405-2.1838783 2.822436-4.8595265 4.250395-6.9882751l38.102367.0629087c-4.698872 8.2525366-9.663923 16.2341601-14.58027 24.2726043l-34.421872-.0510711c-10.68027-.0165727-24.927395 1.5693349-31.8426152-2.4443066-4.3011274-2.4950395-4.9163472-6.4410372-2.0093573-11.226832 1.2307779-2.0215333 2.1676437-3.714318 3.1386696-5.3404735 2.0374299-3.4149944 4.0413759-7.5074409 6.4576099-10.2953777 3.327734-3.83337094 8.961443-6.33416012 14.924915-8.07260431 6.167081-1.80642616 13.11849-2.00901917 20.987486-1.99853439z"/><path d="m97.5351747 7.36910936c1.0325818 4.48782414-3.1332581 8.75546784-5.1710259 12.13596394-2.2352875 3.6916573-3.70823 7.2375423-6.0906426 9.9361894-3.386584 3.8205186-9.7907554 7.2301014-17.1344983 8.9915445-7.1945885 1.7157836-16.9542277 1.2588501-24.6706877 1.2473506l-25.9549042-.0456595c-8.3401353-.0111612-17.68511837-1.3826381-18.39368657-7.5693348-.4264938-3.7028185 3.24825253-8.280947 5.35704622-11.7754228 2.43821871-4.0349493 4.34374295-8.0036077 7.01093575-10.6626832 4.4282976-4.41443067 10.7529876-6.60947013 17.1348365-8.07767757 6.4576099-1.48545659 14.772717-1.26358512 23.9282976-1.24802705l25.2209696.0399098c7.9193912.01116122 17.3773394.95986472 18.7633596 7.02784668m-30.1883878 2.16189402-26.877903-.04498309c-5.0661782-.01149943-9.5563698-.25434047-12.1535513 1.27034951-2.4916573 1.4614431-4.196956 5.8308906-5.9015784 8.6421646-.8523111 1.4052987-1.6538895 2.7595265-2.7686584 4.594363-.824239 1.3552424-2.7520857 3.7538895-2.4020293 4.9677565.5529876 1.8967305 6.9348365 1.4847801 10.8608794 1.4901916l24.6676437.0392334c4.2622323.0064262 8.5606539.4349493 12.5144307.0179256 6.1927847-.6493799 7.5869222-5.6908681 10.1384442-9.9240135.9990981-1.6538895 1.916009-3.0087937 2.7717024-4.4144307.9196166-1.5236753 2.853213-3.9848929 2.2149943-5.3293123-.9449831-2.00360764-9.2032694-1.30383312-13.0643743-1.30924462"/></g><path d="m11.6905299 65.9357384 89.3614431-30.5857948 11.423675 8.6600902 91.388388-43.85174744 95.99425 66.51443064-97.284216-53.6167982-90.8354 37.402593-12.1606542-9.3967305z"/></g></svg>