<?xml version="1.0" encoding="utf-8"?>
<!-- Generator: Adobe Illustrator 19.2.1, SVG Export Plug-In . SVG Version: 6.00 Build 0)  -->
<svg version="1.1" id="layer" xmlns="http://www.w3.org/2000/svg" xmlns:xlink="http://www.w3.org/1999/xlink" x="0px" y="0px"
	 viewBox="0 0 652 652" style="enable-background:new 0 0 652 652;" xml:space="preserve">
<style type="text/css">
	.st0{fill:#231F20;}
</style>
<g>
	<path class="st0" d="M292.6,273.9c5.6,10.9,5.4,24-0.5,34.7l-35.6,61.1l-58.8-101.3v-0.1c-7.3-12.4-11.5-26.9-11.5-42.3
		c0-15.6,4.3-30.1,11.7-42.7l54.3-94.5c6.6-10.2,18-16.9,31-17h145.8l-40.8,70.6l-73.1,0c0,0-6.7-0.2-12.3,3.6
		c-5.6,3.8-7.4,7.8-7.4,7.8L266,205.1c-1.8,3.5-2.9,7.4-2.9,11.6c0,4.3,1.1,8.3,3,11.8L292.6,273.9z M379.3,284.9
		c1.9,3.5,3,7.5,3,11.8c0,4.2-1.1,8.1-2.9,11.5L350,359.5c0,0-1.7,4-7.4,7.8c-5.6,3.8-12.3,3.6-12.3,3.6l-73.1,0l-40.8,70.6h145.8
		c13-0.1,24.4-6.8,31-17l54.3-94.6c7.4-12.5,11.7-27.1,11.7-42.7c0-15.5-4.2-29.9-11.5-42.4v0l-58.8-101.3l-35.6,61.1
		c-5.9,10.8-6,23.8-0.5,34.7L379.3,284.9z M395.5,549.8c-6.5,11.3-13.8,22.1-33.2,22.1H254.3c-10.9,0-21.7-9.1-13.8-22.8l22.9-39.7
		c6.4-11.3,13.8-22.1,33.2-22.1h107.9c10.9,0,21.7,9.1,13.8,22.9L395.5,549.8z M332.4,555.7c5.6,0,7.9-2.8,9.2-5l20.8-36.1
		c1.7-2.9,6.2-11.3-6.2-11.3l-30.2,0c-5.6,0-7.9,2.8-9.2,5L296,544.5c-1.7,2.9-6.2,11.2,6.2,11.2L332.4,555.7z M-39.9,515.8
		c-7.8,13.8,2.9,22.8,13.8,22.8l59.6,0c12.5,0,7.9,8.4,6.2,11.2c-1.7,2.9-3.4,5.9-3.4,5.9l-99.2,0l-9.2,16.1l152.1,0l16.2-28.1
		c7.8-13.8-2.9-22.8-13.8-22.8l-59.6,0c-12.5,0-7.9-8.4-6.2-11.2c0.1-0.2,3.8-6.2,3.8-6.2l95.4,0l9.2-16.1l-128-0.1
		c-19.5,0-26.8,10.7-33.2,22.1L-39.9,515.8z M182.2,508.3c1.3-2.2,3.6-5,9.2-5l60.3,0l9.2-16.2h-99c-19.5,0-26.8,10.7-33.2,22.1
		L105.8,549c-7.8,13.8,2.9,22.8,13.8,22.8h92.7l9.3-16.1c-17.7,0-45.4,0-54,0c-12.5,0-7.9-8.4-6.2-11.2L182.2,508.3z M438.1,487.3
		l-9.2,16h46.7l-39.4,68.5h53l39.4-68.5h37.3l9.2-16H438.1z M587.5,487.3l-9.2,16h35.8l-39.4,68.5h53l39.4-68.5h37.3l9.2-16H587.5z"
		/>
</g>
</svg>
