<svg width="152" height="20" viewBox="0 0 152 20" fill="none" xmlns="http://www.w3.org/2000/svg">
	<path fill-rule="evenodd" clip-rule="evenodd" d="M138.479 0L129.888 19.856H141.428C142.957 19.856 143.867 18.8128 144.486 17.374C144.654 16.9843 145.163 15.8214 145.826 14.3092C147.609 10.2382 150.502 3.6353 150.82 2.76977C151.294 1.6187 151.002 0 149.401 0H138.479ZM135.64 1.47493L136.331 0.108028L126.867 0.143999C125.265 0.143999 124.173 0.647593 123.481 2.19435C122.789 3.77707 117.729 15.3957 116.928 17.3741C116.091 19.3165 116.965 19.964 118.275 19.964H127.667L128.395 18.2734H127.012H122.352C121.442 18.2734 121.297 17.9496 121.843 16.7266C122.389 15.5036 124.537 10.6475 124.537 10.6475H130.106L130.871 9.20869H125.119C125.119 9.20869 127.267 4.10081 127.777 2.98571C128.286 1.87061 128.796 1.47493 130.288 1.47493H135.64ZM120.205 0.108092C121.442 0.108092 122.025 1.15125 120.824 2.37427C119.622 3.59728 107.318 16.8346 106.917 17.3022C106.517 17.7699 106.335 18.2375 107.063 18.2375H114.526L113.871 19.9281H102.331C100.984 19.9281 100.474 18.9929 101.785 17.626C102.2 17.181 103.737 15.5451 105.656 13.5015L105.659 13.4988C109.791 9.10016 115.695 2.81454 116.018 2.44621C116.492 1.94261 116.346 1.69082 115.909 1.69082H109.138L109.721 0.108092H120.205ZM27.0111 1.51056H29.341C29.9234 1.51056 30.3967 1.97818 29.8506 3.27314C29.7201 3.59123 29.5626 3.98329 29.3889 4.41544L29.3887 4.41597L29.3886 4.41615L29.3876 4.41861L29.3875 4.41905L29.3875 4.41909L29.3874 4.41915L29.3873 4.41943C28.8347 5.79488 28.1194 7.57489 27.5936 8.66879C26.9019 10.1076 26.4287 10.6832 25.8462 10.863C25.484 10.9732 24.2258 11.1676 23.3617 11.3012L23.3613 11.3012L23.3607 11.3013C23.0964 11.3422 22.869 11.3773 22.7155 11.4026L27.0111 1.51056ZM75.5739 10.4314L78.4497 5.61132L77.9401 10.4314H75.5739ZM88.2428 16.9785C88.7524 15.8634 95.4507 0.108092 95.4507 0.108092H90.9731C90.9731 0.108092 84.3476 15.2519 83.5467 17.0864C82.7458 18.9569 83.2555 19.9281 84.748 19.9281H92.7204L93.3757 18.2375H89.0073C88.3884 18.2375 87.7331 18.0936 88.2428 16.9785ZM83.1093 0.108092L81.4347 19.9281H76.9935L77.8672 11.8706H74.2268L68.8391 19.9281H64.5434C64.5434 19.9281 76.8115 2.05053 77.2483 1.40305C77.6852 0.75557 78.6316 0.108092 79.2505 0.108092H83.1093ZM62.7602 19.964L71.2787 0.143995H66.801L58.1006 19.964H62.7602ZM107.609 0.108092L99.0907 19.9281H94.431L103.095 0.108092H107.609ZM63.7427 1.54686L64.398 0.143995H54.751C53.3677 0.143995 52.13 0.467734 51.6567 1.61881C51.34 2.38929 48.6582 8.55885 46.7338 12.9859L46.7336 12.9864L46.7302 12.9941L46.7288 12.9974L46.7251 13.0058C45.7786 15.1834 45.0168 16.9358 44.8128 17.4101C44.194 18.8489 44.5216 19.964 46.2326 19.964H55.8067L56.3528 18.2734H54.9695H50.3098C49.3633 18.2734 49.3269 17.7338 49.6545 17.0504C49.8183 16.7086 51.2836 13.3364 52.7488 9.96406L52.7493 9.96305C54.2144 6.59111 55.6793 3.21948 55.8431 2.87779C55.8731 2.81528 55.9016 2.75308 55.9296 2.69164L55.9297 2.69146C56.2087 2.08122 56.453 1.54686 57.8089 1.54686H63.7427ZM50.3459 0.143995L49.6542 1.51089H44.3029C42.8104 1.51089 42.3007 1.90657 41.7911 3.02168C41.2814 4.13678 39.0972 9.24466 39.0972 9.24466H44.849L44.0845 10.6835H38.5147C38.5147 10.6835 36.3669 15.5396 35.8209 16.7626C35.2748 17.9856 35.4204 18.3094 36.3305 18.3094H40.9902H42.3735L41.6454 20H32.2533C30.9428 20 30.0691 19.3525 30.9064 17.4101C31.7073 15.4317 36.7674 3.81304 37.459 2.23031C38.1507 0.683561 39.2428 0.179966 40.8446 0.179966L50.3459 0.143995ZM33.0182 0.143995C34.6563 0.143995 35.4208 1.36701 34.7291 3.16556C34.2188 4.4926 33.6688 5.72172 32.9622 7.30084L32.9621 7.30107L32.962 7.30128L32.962 7.30135C32.711 7.86229 32.4402 8.4674 32.1445 9.13675C31.016 11.6907 30.2151 11.9785 28.0673 12.2662C25.9195 12.554 21.9151 13.0936 21.9151 13.0936L18.8572 19.964H14.4523L23.3348 0.143995H33.0182ZM20.3132 1.54686L21.0049 0.143995L11.1031 0.179966C9.90179 0.179966 8.73687 0.32385 8.11801 1.76269C7.57196 2.96172 7.32927 3.53626 6.88434 4.58956L6.88433 4.58959L6.8842 4.5899C6.79525 4.80047 6.69821 5.03019 6.58906 5.28785C5.9702 6.8346 5.93379 7.15834 7.17152 8.23747C7.67296 8.68924 8.15648 9.10558 8.60997 9.49606C9.27584 10.0694 9.87696 10.587 10.375 11.0792C11.2123 11.8705 11.0303 12.59 10.4114 14.0288C9.79258 15.5036 9.64696 15.7914 9.13731 16.7626C8.62766 17.7338 8.30003 18.3094 7.17152 18.3094H0.873687L0 20H10.193C11.6856 20 12.6321 19.6043 13.5057 17.7338C13.9186 16.8292 14.004 16.6068 14.1023 16.3507C14.2033 16.0874 14.3181 15.7885 14.8163 14.6763C16.0904 11.7986 15.6536 11.1871 14.0882 9.85617C13.7864 9.59687 13.4657 9.31421 13.1415 9.02839L13.1414 9.02834L13.1412 9.02816C12.5659 8.52105 11.9793 8.00404 11.4671 7.58999C10.6663 6.94252 10.6299 5.9713 11.0667 5.03605C11.1899 4.74839 11.2889 4.49475 11.3808 4.25945L11.3808 4.25944L11.3808 4.25943C11.5877 3.72973 11.7583 3.29292 12.086 2.76988C12.5228 2.05046 13.0325 1.51089 13.8698 1.51089L20.3132 1.54686ZM137.023 18.2013H138.152C139.28 18.2013 139.608 17.6258 140.008 16.7985C140.409 15.9711 145.36 4.74819 145.906 3.38129C146.452 1.97842 146.051 1.65468 145.214 1.65468H142.265L135.094 18.2013H136.514H137.023Z" fill="#252525"></path>
</svg>