<svg width="278" height="60" viewBox="0 0 278 60" fill="none" xmlns="http://www.w3.org/2000/svg">
<g clip-path="url(#clip0_710_1917)">
<path d="M11.8245 0L1.7621 15.2398H26.4316L0 55.2444H24.5266L51.4344 15.5596H71.4367L81.6759 0H11.8245Z" fill="#262626"/>
<path d="M153.113 0H95.9633C95.9633 0 77.3897 1.03413 70.9604 13.4165C64.5311 25.7988 67.8648 33.48 80.9616 33.7181C80.9616 33.7181 111.917 33.6841 113.584 33.7181C116.088 33.7725 116.802 40.5624 108.346 40.5624H55.4825L45.2432 55.2444H112.394C114.666 55.2444 129.198 52.2916 135.492 38.1812C142.145 23.2543 128.77 21.0364 124.776 21.0364H91.9152C90.6293 21.0364 87.5201 16.0835 97.6301 15.5596H142.635L153.113 0Z" fill="#262626"/>
<path d="M157.399 0C157.399 0 160.018 2.22474 157.161 7.22531L131.205 48.1823C131.205 48.1823 127.219 55.2444 132.872 55.2444H149.541L189.783 28.4182L179.068 47.7061C179.068 47.7061 174.367 55.2444 180.497 55.2444H196.451L277.889 0L206.928 38.6574L225.978 6.27282C225.978 6.27282 230.325 0 233.122 0H201.213C201.213 0 203.118 2.70099 200.499 4.60596C197.88 6.51094 167.4 28.4182 167.4 28.4182L180.497 5.79658C180.497 5.79658 184.13 0 187.878 0L157.399 0Z" fill="#262626"/>
<path d="M245.98 0C245.98 0 250.505 3.17723 243.599 8.65404L217.882 29.6088L272.412 0H245.98Z" fill="#ED1C2E"/>
<path d="M207.377 57.8914V54.7465H208.97C209.098 54.7465 209.237 54.7834 209.388 54.8573C209.538 54.9283 209.666 55.0391 209.771 55.1897C209.879 55.3374 209.933 55.5249 209.933 55.7522C209.933 55.9823 209.878 56.1783 209.767 56.3403C209.656 56.4993 209.521 56.6201 209.362 56.7025C209.206 56.7849 209.058 56.826 208.919 56.826H207.769V56.3147H208.706C208.8 56.3147 208.901 56.2678 209.009 56.1741C209.119 56.0803 209.175 55.9397 209.175 55.7522C209.175 55.559 209.119 55.4283 209.009 55.3601C208.901 55.292 208.806 55.2579 208.723 55.2579H208.067V57.8914H207.377ZM209.277 56.4084L210.061 57.8914H209.303L208.536 56.4084H209.277ZM208.57 59.7664C208.098 59.7664 207.656 59.6783 207.244 59.5022C206.833 59.326 206.47 59.0817 206.158 58.7692C205.845 58.4567 205.601 58.0945 205.425 57.6826C205.249 57.2707 205.161 56.8289 205.161 56.3573C205.161 55.8857 205.249 55.4439 205.425 55.032C205.601 54.6201 205.845 54.2579 206.158 53.9454C206.47 53.6329 206.833 53.3885 207.244 53.2124C207.656 53.0363 208.098 52.9482 208.57 52.9482C209.041 52.9482 209.483 53.0363 209.895 53.2124C210.307 53.3885 210.669 53.6329 210.982 53.9454C211.294 54.2579 211.538 54.6201 211.715 55.032C211.891 55.4439 211.979 55.8857 211.979 56.3573C211.979 56.8289 211.891 57.2707 211.715 57.6826C211.538 58.0945 211.294 58.4567 210.982 58.7692C210.669 59.0817 210.307 59.326 209.895 59.5022C209.483 59.6783 209.041 59.7664 208.57 59.7664ZM208.57 58.9482C209.047 58.9482 209.482 58.8317 209.874 58.5988C210.266 58.3658 210.578 58.0533 210.811 57.6613C211.044 57.2692 211.161 56.8346 211.161 56.3573C211.161 55.88 211.044 55.4454 210.811 55.0533C210.578 54.6613 210.266 54.3488 209.874 54.1158C209.482 53.8829 209.047 53.7664 208.57 53.7664C208.092 53.7664 207.658 53.8829 207.266 54.1158C206.874 54.3488 206.561 54.6613 206.328 55.0533C206.095 55.4454 205.979 55.88 205.979 56.3573C205.979 56.8346 206.095 57.2692 206.328 57.6613C206.561 58.0533 206.874 58.3658 207.266 58.5988C207.658 58.8317 208.092 58.9482 208.57 58.9482Z" fill="#262626"/>
</g>
<defs>
<clipPath id="clip0_710_1917">
<rect width="277.889" height="60" fill="white"/>
</clipPath>
</defs>
</svg>
